<?xml version="1.0" encoding="UTF-8" standalone="no"?>
<!DOCTYPE svg PUBLIC "-//W3C//DTD SVG 1.1//EN" "http://www.w3.org/Graphics/SVG/1.1/DTD/svg11.dtd">
<svg version="1.1" xmlns="http://www.w3.org/2000/svg" xmlns:xlink="http://www.w3.org/1999/xlink" preserveAspectRatio="xMidYMid meet" viewBox="0 0 32 32" width="32" height="32"><defs><path d="M4.34 3.92L4.34 4.92L4.34 6.15L4.34 8.77L4.34 10.39L4.34 12.16L4.34 15.08L4.34 20.47L4.34 21.94L4.34 23.63L4.34 24.55L4.34 25.94L4.34 27.56L12.95 21.5L14.11 10.39L4.34 3.92Z" id="cgbInFQRU"></path><path d="M14.34 10.41C16.51 9.1 20.84 6.48 27.35 2.56L27.35 3.71L27.35 4.56L27.35 5.56L27.35 8.33L27.35 11.1L27.35 12.41L27.35 13.72L27.35 14.95L27.35 17.26L27.35 18.11L27.35 19.34L27.35 20.19L27.35 32" id="bi3mdfe9N"></path></defs><g><g><g><g><use xlink:href="#cgbInFQRU" opacity="1" fill-opacity="0" stroke="#03a9f4" stroke-width="3" stroke-opacity="1"></use></g></g><g><g><use xlink:href="#bi3mdfe9N" opacity="1" fill-opacity="0" stroke="#03a9f4" stroke-width="3" stroke-opacity="1"></use></g></g></g></g></svg>